<svg width="64" height="64" viewBox="0 0 64 64" fill="none" xmlns="http://www.w3.org/2000/svg">
<g clip-path="url(#clip0_21_15414)">
<path d="M8 18.6666H16" stroke="#3F67B1" stroke-width="4" stroke-linecap="round" stroke-linejoin="round"/>
<path d="M8 29.3334H13.3333" stroke="#3F67B1" stroke-width="4" stroke-linecap="round" stroke-linejoin="round"/>
<path d="M24.0532 23.4693L22.4532 39.4693C22.3791 40.2107 22.4611 40.9594 22.6941 41.6672C22.927 42.375 23.3056 43.0261 23.8056 43.5786C24.3056 44.1311 24.9158 44.5727 25.5969 44.8749C26.2779 45.1771 27.0148 45.3333 27.7599 45.3333H49.0399C50.3625 45.3332 51.6379 44.8418 52.6185 43.9543C53.5991 43.0668 54.215 41.8466 54.3466 40.5306L55.9466 24.5306C56.0207 23.7892 55.9387 23.0405 55.7057 22.3327C55.4728 21.6249 55.0941 20.9738 54.5942 20.4213C54.0942 19.8689 53.484 19.4273 52.8029 19.125C52.1219 18.8228 51.385 18.6667 50.6399 18.6666H29.3599C28.0373 18.6667 26.7619 19.1581 25.7813 20.0456C24.8007 20.9331 24.1848 22.1533 24.0532 23.4693Z" stroke="#3F67B1" stroke-width="4" stroke-linecap="round" stroke-linejoin="round"/>
<path d="M26.1333 20L34.0853 28.7467C34.792 29.5241 35.6448 30.1548 36.5953 30.6026C37.5457 31.0505 38.575 31.3067 39.6244 31.3567C40.6738 31.4067 41.7229 31.2496 42.7115 30.8941C43.7002 30.5387 44.6092 29.9921 45.3866 29.2853L54.1333 21.3333" stroke="#3F67B1" stroke-width="4" stroke-linecap="round" stroke-linejoin="round"/>
</g>
<defs>
<clipPath id="clip0_21_15414">
<rect width="64" height="64" fill="white"/>
</clipPath>
</defs>
</svg>
