<svg width="64" height="64" viewBox="0 0 64 64" fill="none" xmlns="http://www.w3.org/2000/svg">
<g clip-path="url(#clip0_21_15522)">
<path d="M40 29.3333V29.3599" stroke="#3F67B1" stroke-width="4" stroke-linecap="round" stroke-linejoin="round"/>
<path d="M42.6666 8V18.1413C45.9669 20.051 48.4795 23.0732 49.7546 26.6667H53.3306C54.0378 26.6667 54.7161 26.9476 55.2162 27.4477C55.7163 27.9478 55.9972 28.6261 55.9972 29.3333V34.6667C55.9972 35.3739 55.7163 36.0522 55.2162 36.5523C54.7161 37.0524 54.0378 37.3333 53.3306 37.3333H49.7519C48.8548 39.8677 47.3343 42.1356 45.3306 43.928V49.3333C45.3306 50.3942 44.9091 51.4116 44.159 52.1618C43.4088 52.9119 42.3914 53.3333 41.3306 53.3333C40.2697 53.3333 39.2523 52.9119 38.5021 52.1618C37.752 51.4116 37.3306 50.3942 37.3306 49.3333V47.7787C36.4494 47.9263 35.5574 48.0003 34.6639 48H23.9972C23.1037 48.0003 22.2118 47.9263 21.3306 47.7787V49.3333C21.3306 50.3942 20.9091 51.4116 20.159 52.1618C19.4088 52.9119 18.3914 53.3333 17.3306 53.3333C16.2697 53.3333 15.2523 52.9119 14.5021 52.1618C13.752 51.4116 13.3306 50.3942 13.3306 49.3333V44L13.3332 43.928C10.9173 41.7681 9.2142 38.9254 8.44934 35.7763C7.68448 32.6271 7.89391 29.32 9.04993 26.2925C10.2059 23.265 12.254 20.6599 14.9231 18.822C17.5922 16.9841 20.7565 16 23.9972 16H30.6639L42.6639 8H42.6666Z" stroke="#3F67B1" stroke-width="4" stroke-linecap="round" stroke-linejoin="round"/>
</g>
<defs>
<clipPath id="clip0_21_15522">
<rect width="64" height="64" fill="white"/>
</clipPath>
</defs>
</svg>
