<svg width="107" height="73" viewBox="0 0 107 73" fill="none" xmlns="http://www.w3.org/2000/svg">
<mask id="mask0_6_1309" style="mask-type:luminance" maskUnits="userSpaceOnUse" x="51" y="8" width="41" height="37">
<path d="M84.5896 8.50488H79.3714L70.1812 32.3326L61.5824 9.07616H51.6155L65.6328 44.0234H76.1222L84.5896 14.9136V44.0234H91.7846V8.50488H84.5896Z" fill="white"/>
</mask>
<g mask="url(#mask0_6_1309)">
<path d="M60.8973 -8.39399L36.6169 35.8179L82.5036 60.9247L106.784 16.7128L60.8973 -8.39399Z" fill="#EBF0FF"/>
</g>
<mask id="mask1_6_1309" style="mask-type:luminance" maskUnits="userSpaceOnUse" x="37" y="36" width="22" height="9">
<path d="M40.8318 36.1226L37.9036 44.0232H58.1804L55.0483 36.1226H40.8318Z" fill="white"/>
</mask>
<g mask="url(#mask1_6_1309)">
<path d="M42.5891 27.5925L34.5676 42.1987L53.4959 52.5553L61.5174 37.9491L42.5891 27.5925Z" fill="#EBF0FF"/>
</g>
<mask id="mask2_6_1309" style="mask-type:luminance" maskUnits="userSpaceOnUse" x="43" y="17" width="10" height="14">
<path d="M52.7554 30.1004L47.8343 17.0439L43.0493 30.1004H52.7554Z" fill="white"/>
</mask>
<g mask="url(#mask2_6_1309)">
<path d="M45.2915 12.9615L37.5352 27.085L50.5122 34.1853L58.2686 20.0619L45.2915 12.9615Z" fill="#EBF0FF"/>
</g>
<mask id="mask3_6_1309" style="mask-type:luminance" maskUnits="userSpaceOnUse" x="14" y="8" width="30" height="37">
<path d="M43.9064 8.95455H36.0713V22.5846H21.9779V8.50488H14.783V44.0234H21.9779V28.6925H36.5189L43.9064 8.95455Z" fill="white"/>
</mask>
<g mask="url(#mask3_6_1309)">
<path d="M21.5115 -3.74652L-0.216553 35.8179L37.1766 56.2775L58.9047 16.7131L21.5115 -3.74652Z" fill="#EBF0FF"/>
</g>
<path d="M20.0214 49.0812H14.783V47.2451H27.4642V49.0812H22.2252V64.294H20.0214V49.0812Z" fill="#EBF0FF"/>
<path d="M37.1565 47.2451H47.1377V49.0812H39.3603V54.4232H45.9211V56.2593H39.3603V62.4573H47.4022V64.294H37.1565V47.2451Z" fill="#EBF0FF"/>
<path d="M56.6536 55.7841C56.6536 50.2855 59.9445 46.9331 64.339 46.9331C66.4411 46.9331 68.088 47.9416 69.1019 49.0355L67.8942 50.4486C66.9831 49.4911 65.839 48.8403 64.3776 48.8403C61.1046 48.8403 58.9299 51.4796 58.9299 55.7266C58.9299 60.0121 61.0101 62.6982 64.2914 62.6982C65.9442 62.6982 67.2001 61.9899 68.3055 60.7839L69.5132 62.1441C68.1462 63.7085 66.4494 64.6054 64.1999 64.6054C59.8862 64.6054 56.6519 61.3207 56.6519 55.7841" fill="#EBF0FF"/>
<path d="M79.3232 47.2451H81.527V54.3852H89.5808V47.2451H91.7846V64.294H89.5808V56.2782H81.527V64.294H79.3232V47.2451Z" fill="#EBF0FF"/>
</svg>
