<svg width="104" height="105" viewBox="0 0 104 105" fill="none" xmlns="http://www.w3.org/2000/svg">
<rect x="0.999756" y="1" width="102" height="102" rx="51" stroke="#3F67B1" stroke-width="2" stroke-dasharray="8 4"/>
<rect x="0.5" y="9.5" width="95" height="95" rx="47.5" fill="#3F67B1"/>
<rect x="0.5" y="9.5" width="95" height="95" rx="47.5" stroke="#3F67B1"/>
<path d="M62 37H34C33.4696 37 32.9609 36.7893 32.5858 36.4142C32.2107 36.0391 32 35.5304 32 35C32 34.4696 32.2107 33.9609 32.5858 33.5858C32.9609 33.2107 33.4696 33 34 33H62C62.5304 33 63.0391 33.2107 63.4142 33.5858C63.7893 33.9609 64 34.4696 64 35C64 35.5304 63.7893 36.0391 63.4142 36.4142C63.0391 36.7893 62.5304 37 62 37Z" fill="white"/>
<path d="M66 43H30C29.4696 43 28.9609 42.7893 28.5858 42.4142C28.2107 42.0391 28 41.5304 28 41C28 40.4696 28.2107 39.9609 28.5858 39.5858C28.9609 39.2107 29.4696 39 30 39H66C66.5304 39 67.0391 39.2107 67.4142 39.5858C67.7893 39.9609 68 40.4696 68 41C68 41.5304 67.7893 42.0391 67.4142 42.4142C67.0391 42.7893 66.5304 43 66 43Z" fill="white"/>
<path d="M68.3913 81H27.6088C26.1217 80.9983 24.6961 80.4069 23.6446 79.3554C22.5931 78.3039 22.0017 76.8783 22 75.3913V50.6087C22.0017 49.1217 22.5931 47.6961 23.6446 46.6446C24.6961 45.5931 26.1217 45.0017 27.6088 45H68.3913C69.8783 45.0017 71.3039 45.5931 72.3554 46.6446C73.4069 47.6961 73.9983 49.1217 74 50.6087V75.3913C73.9983 76.8783 73.4069 78.3039 72.3554 79.3554C71.3039 80.4069 69.8783 80.9983 68.3913 81V81Z" fill="white"/>
</svg>
