<svg width="105" height="105" viewBox="0 0 105 105" fill="none" xmlns="http://www.w3.org/2000/svg">
<rect x="0.999756" y="1" width="102" height="102" rx="51" stroke="black" stroke-width="2" stroke-dasharray="8 4"/>
<rect x="9.5" y="9.5" width="95" height="95" rx="47.5" fill="black"/>
<rect x="9.5" y="9.5" width="95" height="95" rx="47.5" stroke="black"/>
<path d="M71 37H43C42.4696 37 41.9609 36.7893 41.5858 36.4142C41.2107 36.0391 41 35.5304 41 35C41 34.4696 41.2107 33.9609 41.5858 33.5858C41.9609 33.2107 42.4696 33 43 33H71C71.5304 33 72.0391 33.2107 72.4142 33.5858C72.7893 33.9609 73 34.4696 73 35C73 35.5304 72.7893 36.0391 72.4142 36.4142C72.0391 36.7893 71.5304 37 71 37Z" fill="white"/>
<path d="M75 43H39C38.4696 43 37.9609 42.7893 37.5858 42.4142C37.2107 42.0391 37 41.5304 37 41C37 40.4696 37.2107 39.9609 37.5858 39.5858C37.9609 39.2107 38.4696 39 39 39H75C75.5304 39 76.0391 39.2107 76.4142 39.5858C76.7893 39.9609 77 40.4696 77 41C77 41.5304 76.7893 42.0391 76.4142 42.4142C76.0391 42.7893 75.5304 43 75 43Z" fill="white"/>
<path d="M77.3913 81H36.6088C35.1217 80.9983 33.6961 80.4069 32.6446 79.3554C31.5931 78.3039 31.0017 76.8783 31 75.3913V50.6087C31.0017 49.1217 31.5931 47.6961 32.6446 46.6446C33.6961 45.5931 35.1217 45.0017 36.6088 45H77.3913C78.8783 45.0017 80.3039 45.5931 81.3554 46.6446C82.4069 47.6961 82.9983 49.1217 83 50.6087V75.3913C82.9983 76.8783 82.4069 78.3039 81.3554 79.3554C80.3039 80.4069 78.8783 80.9983 77.3913 81V81Z" fill="white"/>
</svg>
