<svg width="82" height="83" viewBox="0 0 82 83" fill="none" xmlns="http://www.w3.org/2000/svg">
<path d="M34.5938 17.1562V18.4375H47.4062V17.1562C47.4062 15.4572 46.7313 13.8278 45.5299 12.6263C44.3285 11.4249 42.699 10.75 41 10.75C39.301 10.75 37.6715 11.4249 36.4701 12.6263C35.2687 13.8278 34.5938 15.4572 34.5938 17.1562ZM29.4688 18.4375V17.1562C29.4688 14.098 30.6836 11.165 32.8462 9.00242C35.0087 6.8399 37.9417 5.625 41 5.625C44.0583 5.625 46.9913 6.8399 49.1538 9.00242C51.3164 11.165 52.5312 14.098 52.5312 17.1562V18.4375H71.75C72.4296 18.4375 73.0814 18.7075 73.562 19.188C74.0425 19.6686 74.3125 20.3204 74.3125 21C74.3125 21.6796 74.0425 22.3314 73.562 22.812C73.0814 23.2925 72.4296 23.5625 71.75 23.5625H67.8857L63.0375 66.018C62.68 69.1447 61.1842 72.0305 58.8354 74.1251C56.4865 76.2197 53.449 77.3765 50.3019 77.375H31.6981C28.551 77.3765 25.5135 76.2197 23.1646 74.1251C20.8158 72.0305 19.32 69.1447 18.9625 66.018L14.1142 23.5625H10.25C9.57038 23.5625 8.9186 23.2925 8.43804 22.812C7.95748 22.3314 7.6875 21.6796 7.6875 21C7.6875 20.3204 7.95748 19.6686 8.43804 19.188C8.9186 18.7075 9.57038 18.4375 10.25 18.4375H29.4688ZM35.875 35.0938C35.875 34.4141 35.605 33.7624 35.1245 33.2818C34.6439 32.8012 33.9921 32.5312 33.3125 32.5312C32.6329 32.5312 31.9811 32.8012 31.5005 33.2818C31.02 33.7624 30.75 34.4141 30.75 35.0938V60.7188C30.75 61.3984 31.02 62.0502 31.5005 62.5307C31.9811 63.0113 32.6329 63.2812 33.3125 63.2812C33.9921 63.2812 34.6439 63.0113 35.1245 62.5307C35.605 62.0502 35.875 61.3984 35.875 60.7188V35.0938ZM48.6875 32.5312C48.0079 32.5312 47.3561 32.8012 46.8755 33.2818C46.395 33.7624 46.125 34.4141 46.125 35.0938V60.7188C46.125 61.3984 46.395 62.0502 46.8755 62.5307C47.3561 63.0113 48.0079 63.2812 48.6875 63.2812C49.3671 63.2812 50.0189 63.0113 50.4995 62.5307C50.98 62.0502 51.25 61.3984 51.25 60.7188V35.0938C51.25 34.4141 50.98 33.7624 50.4995 33.2818C50.0189 32.8012 49.3671 32.5312 48.6875 32.5312Z" fill="#FF0000"/>
</svg>
