<svg width="92" height="63" viewBox="0 0 92 63" fill="none" xmlns="http://www.w3.org/2000/svg">
<mask id="mask0_1_1846" style="mask-type:luminance" maskUnits="userSpaceOnUse" x="44" y="7" width="36" height="31">
<path d="M73.0205 7H68.5338L60.632 27.5636L53.2387 7.49302H44.6689L56.7212 37.653H65.7401L73.0205 12.5308V37.653H79.2069V7H73.0205Z" fill="white"/>
</mask>
<g mask="url(#mask0_1_1846)">
<path d="M52.6498 -7.58397L31.7732 30.5715L71.2271 52.239L92.1037 14.0836L52.6498 -7.58397Z" fill="url(#paint0_linear_1_1846)"/>
</g>
<mask id="mask1_1_1846" style="mask-type:luminance" maskUnits="userSpaceOnUse" x="32" y="30" width="19" height="8">
<path d="M35.3972 30.8346L32.8794 37.653H50.3137L47.6206 30.8346H35.3972Z" fill="white"/>
</mask>
<g mask="url(#mask1_1_1846)">
<path d="M36.908 23.4733L30.011 36.0787L46.2857 45.0165L53.1827 32.4112L36.908 23.4733Z" fill="url(#paint1_linear_1_1846)"/>
</g>
<mask id="mask2_1_1846" style="mask-type:luminance" maskUnits="userSpaceOnUse" x="37" y="14" width="9" height="12">
<path d="M45.6491 25.6371L41.4179 14.3693L37.3037 25.6371H45.6491Z" fill="white"/>
</mask>
<g mask="url(#mask2_1_1846)">
<path d="M39.2315 10.8459L32.5625 23.0346L43.7203 29.1623L50.3894 16.9736L39.2315 10.8459Z" fill="url(#paint2_linear_1_1846)"/>
</g>
<mask id="mask3_1_1846" style="mask-type:luminance" maskUnits="userSpaceOnUse" x="13" y="7" width="26" height="31">
<path d="M38.0407 7.38807H31.304V19.151H19.1863V7H13V37.653H19.1863V24.4222H31.6888L38.0407 7.38807Z" fill="white"/>
</mask>
<g mask="url(#mask3_1_1846)">
<path d="M18.7854 -3.57308L0.103271 30.5715L32.2544 48.2285L50.9365 14.0839L18.7854 -3.57308Z" fill="url(#paint3_linear_1_1846)"/>
</g>
<path d="M17.5041 42.018H13V40.4335H23.9035V42.018H19.3989V55.1469H17.5041V42.018Z" fill="#231F20"/>
<path d="M32.2371 40.4335H40.819V42.018H34.1319V46.6283H39.773V48.2128H34.1319V53.5618H41.0464V55.1469H32.2371V40.4335Z" fill="#231F20"/>
<path d="M49.001 47.8027C49.001 43.0573 51.8305 40.1642 55.609 40.1642C57.4164 40.1642 58.8325 41.0345 59.7042 41.9786L58.6659 43.1981C57.8825 42.3718 56.8988 41.8102 55.6422 41.8102C52.828 41.8102 50.9582 44.0879 50.9582 47.7531C50.9582 51.4515 52.7468 53.7697 55.5681 53.7697C56.9892 53.7697 58.069 53.1584 59.0195 52.1176L60.0579 53.2915C58.8825 54.6416 57.4236 55.4157 55.4894 55.4157C51.7805 55.4157 48.9995 52.5809 48.9995 47.8027" fill="#231F20"/>
<path d="M68.4927 40.4335H70.3875V46.5955H77.3123V40.4335H79.2071V55.1469H77.3123V48.2292H70.3875V55.1469H68.4927V40.4335Z" fill="#231F20"/>
<defs>
<linearGradient id="paint0_linear_1_1846" x1="69.2146" y1="8.12482" x2="45.7897" y2="50.7787" gradientUnits="userSpaceOnUse">
<stop stop-color="#6FCCDD"/>
<stop offset="0.51" stop-color="#49A3DA"/>
<stop offset="1" stop-color="#3F67B1"/>
</linearGradient>
<linearGradient id="paint1_linear_1_1846" x1="61.6383" y1="-3.25905" x2="38.2134" y2="39.3949" gradientUnits="userSpaceOnUse">
<stop stop-color="#6FCCDD"/>
<stop offset="0.51" stop-color="#49A3DA"/>
<stop offset="1" stop-color="#3F67B1"/>
</linearGradient>
<linearGradient id="paint2_linear_1_1846" x1="52.7063" y1="-0.949235" x2="29.2814" y2="41.7047" gradientUnits="userSpaceOnUse">
<stop stop-color="#6FCCDD"/>
<stop offset="0.51" stop-color="#49A3DA"/>
<stop offset="1" stop-color="#3F67B1"/>
</linearGradient>
<linearGradient id="paint3_linear_1_1846" x1="41.4179" y1="-7.13184" x2="17.993" y2="35.5221" gradientUnits="userSpaceOnUse">
<stop stop-color="#6FCCDD"/>
<stop offset="0.51" stop-color="#49A3DA"/>
<stop offset="1" stop-color="#3F67B1"/>
</linearGradient>
</defs>
</svg>
