<svg width="14" height="14" viewBox="0 0 14 14" fill="none" xmlns="http://www.w3.org/2000/svg">
<path d="M6.4375 1.375H5.3125C2.5 1.375 1.375 2.5 1.375 5.3125V8.6875C1.375 11.5 2.5 12.625 5.3125 12.625H8.6875C11.5 12.625 12.625 11.5 12.625 8.6875V7.5625" stroke="#28334A" stroke-linecap="round" stroke-linejoin="round"/>
<path d="M9.27255 1.94895L4.84005 6.38145C4.6713 6.5502 4.50255 6.88208 4.4688 7.12395L4.22693 8.81708C4.13693 9.4302 4.57005 9.8577 5.18318 9.77333L6.8763 9.53145C7.11255 9.4977 7.44443 9.32895 7.6188 9.1602L12.0513 4.7277C12.8163 3.9627 13.1763 3.07395 12.0513 1.94895C10.9263 0.823953 10.0376 1.18395 9.27255 1.94895Z" stroke="#28334A" stroke-miterlimit="10" stroke-linecap="round" stroke-linejoin="round"/>
<path d="M8.63696 2.58447C9.01384 3.92885 10.0657 4.98072 11.4157 5.36322" stroke="#28334A" stroke-miterlimit="10" stroke-linecap="round" stroke-linejoin="round"/>
</svg>
